<svg xmlns="http://www.w3.org/2000/svg" viewBox="0 0 968.48 968.49"><defs><style>.cls-1{isolation:isolate;}.cls-2{fill:#3c444f;}.cls-3{fill:#2f383a;}.cls-4,.cls-8{fill:#71bdc1;}.cls-5{fill:#da4643;}.cls-6{fill:#fff;}.cls-7{fill:#c3b7a0;}.cls-8{mix-blend-mode:multiply;}</style></defs><title>Asset 1</title><g class="cls-1"><g id="Layer_2" data-name="Layer 2"><g id="Layer_1-2" data-name="Layer 1"><path class="cls-2" d="M968.48,484.26c0,267.42-216.82,484.23-484.22,484.23S0,751.68,0,484.26,216.78,0,484.26,0,968.48,216.78,968.48,484.26Z"/><path class="cls-3" d="M668.71,674.28,803.81,435,606.56,510.28l37.9-55.38L254.29,201.74,4.08,421.22a489.27,489.27,0,0,0-4.08,63C0,751.68,216.78,968.49,484.26,968.49a484.35,484.35,0,0,0,131.12-18L768.84,812.39Z"/><path class="cls-4" d="M561.72,309.15a138.3,138.3,0,1,0-25.22,194A138.29,138.29,0,0,0,561.72,309.15Z"/><polygon class="cls-5" points="336.94 476.87 336.94 201.74 254.28 201.74 254.28 505.12 305.5 487.6 336.94 476.87"/><polygon class="cls-5" points="404.08 453.81 406.15 455.52 439.43 482.88 439.43 261.84 356.81 261.84 356.81 470.03 382.74 461.16 404.08 453.81"/><polygon class="cls-5" points="481.33 517.25 486.91 515.11 541.95 494.09 541.95 230.29 459.34 230.29 459.34 499.16 478.23 514.7 481.33 517.25"/><polygon class="cls-5" points="644.46 454.9 644.46 261.84 561.8 261.84 561.8 486.46 594.07 474.15 644.46 454.9"/><polygon class="cls-5" points="685.87 416.33 701.54 455.81 699.19 456.74 644.46 477.62 594.07 496.91 561.8 509.25 548.59 514.32 541.95 516.84 486.91 537.86 481.33 540 478.23 537.46 459.34 521.94 439.43 505.61 406.15 478.27 404.08 476.62 382.74 483.91 356.81 492.81 336.94 499.59 305.5 510.38 254.28 527.93 240.24 532.73 259.03 577.43 336.94 550.96 336.94 550.96 356.81 544.23 389.14 533.22 393.64 531.7 395.92 533.58 439.43 569.56 467.77 593 503.79 579.55 541.95 565.28 561.8 557.85 600.77 543.28 603.19 542.39 644.46 526.96 715.09 500.52 733.88 540 803.81 435.01 685.87 416.33"/><polygon class="cls-6" points="630.95 598.95 605.02 618.91 526.47 516.88 552.4 496.93 630.95 598.95"/><path class="cls-7" d="M781.32,760.26c11.32,14.7,7.32,36.77-8.89,49.27h0c-16.25,12.49-38.6,10.71-49.91-4L601.09,647.82c-11.33-14.71-7.32-36.77,8.9-49.27h0c16.23-12.49,38.58-10.71,49.91,4Z"/><path class="cls-6" d="M584.42,291.68A166.94,166.94,0,1,0,554,525.81,166.94,166.94,0,0,0,584.42,291.68ZM536.5,503.1a138.29,138.29,0,1,1,25.22-194A138.3,138.3,0,0,1,536.5,503.1Z"/><path class="cls-8" d="M561.72,309.15a138.3,138.3,0,1,0-25.22,194A138.29,138.29,0,0,0,561.72,309.15Z"/></g></g></g></svg>